General
Complete name                    : J:\\My.DvD.Movies\\My.DvD.Movies\\new movies\\Colombiana_-_Cam_-_2011_-_HP.mp4
Format                           : MPEG-4
Format profile                   : Base Media
Codec ID                         : isom
File size                        : 1.35 GiB
Duration                         : 1h 43mn
Overall bit rate                 : 1 861 Kbps
Encoded date                     : UTC 1970-01-01 00:00:00
Tagged date                      : UTC 1970-01-01 00:00:00
 
http://www.imdb.com/title/tt1657507/

Video
ID                               : 1
Format                           : MPEG-4 Visual
Format profile                   : Simple@L3
Format settings, BVOP            : No
Format settings, QPel            : No
Format settings, GMC             : No warppoints
Format settings, Matrix          : Default (H.263)
Codec ID                         : 20
Duration                         : 1h 43mn
Bit rate mode                    : Variable
Bit rate                         : 1 792 Kbps
Width                            : 720 pixels
Height                           : 480 pixels
Display aspect ratio             : 4:3
Original display aspect ratio    : 1.500
Frame rate mode                  : Constant
Frame rate                       : 29.970 fps
Standard                         : NTSC
Resolution                       : 24 bits
Colorimetry                      : 4:2:0
Scan type                        : Progressive
Bits/(Pixel*Frame)               : 0.173
Stream size                      : 1.30 GiB (96%)
Encoded date                     : UTC 1970-01-01 00:00:00
Tagged date                      : UTC 1970-01-01 00:00:00

Audio
ID                               : 2
Format                           : AAC
Format/Info                      : Advanced Audio Codec
Format version                   : Version 4
Format profile                   : LC
Format settings, SBR             : No
Codec ID                         : 40
Duration                         : 1h 43mn
Bit rate mode                    : Variable
Bit rate                         : 64.0 Kbps
Channel(s)                       : 2 channels
Channel positions                : L R
Sampling rate                    : 44.1 KHz
Resolution                       : 16 bits
Stream size                      : 47.6 MiB (3%)
Encoded date                     : UTC 1970-01-01 00:00:00
Tagged date                      : UTC 1970-01-01 00:00:00

A young woman grows up to be a stone-cold assassin after witnessing her parents\' murder as a child in Bogota. She works for her uncle as a hitman by day, but her personal time is spent engaging in vigilante murders that she hopes will lead her to her ultimate target - the mobster responsible for her parents\' death

screens
 
http://www.shotpix.com/images/17992475742216283681.png
 
http://www.shotpix.com/images/34207552809394902120.png
 
http://www.shotpix.com/images/88926369759023759637.png
 
http://www.shotpix.com/images/13957816967893653636.png